<svg width="33" height="33" viewBox="0 0 33 33" fill="none" xmlns="http://www.w3.org/2000/svg">
<path d="M2.80859 10.4082C2.80859 5.98992 6.39032 2.4082 10.8086 2.4082H22.7476C27.1659 2.4082 30.7476 5.98993 30.7476 10.4082V22.4082C30.7476 26.8265 27.1659 30.4082 22.7476 30.4082H10.8086C6.39032 30.4082 2.80859 26.8265 2.80859 22.4082V10.4082Z" fill="#F00073"/>
<path d="M16.9973 10.2461C19.1973 10.2461 19.4973 10.2461 20.3973 10.2461C21.1973 10.2461 21.5973 10.4461 21.8973 10.5461C22.2973 10.7461 22.5973 10.8461 22.8973 11.1461C23.1973 11.4461 23.3973 11.7461 23.4973 12.1461C23.5973 12.4461 23.6973 12.8461 23.7973 13.6461C23.7973 14.5461 23.7973 14.7461 23.7973 17.0461C23.7973 19.3461 23.7973 19.5461 23.7973 20.4461C23.7973 21.2461 23.5973 21.6461 23.4973 21.9461C23.2973 22.3461 23.1973 22.6461 22.8973 22.9461C22.5973 23.2461 22.2973 23.4461 21.8973 23.5461C21.5973 23.6461 21.1973 23.7461 20.3973 23.8461C19.4973 23.8461 19.2973 23.8461 16.9973 23.8461C14.6973 23.8461 14.4973 23.8461 13.5973 23.8461C12.7973 23.8461 12.3973 23.6461 12.0973 23.5461C11.6973 23.3461 11.3973 23.2461 11.0973 22.9461C10.7973 22.6461 10.5973 22.3461 10.4973 21.9461C10.3973 21.6461 10.2973 21.2461 10.1973 20.4461C10.1973 19.5461 10.1973 19.3461 10.1973 17.0461C10.1973 14.7461 10.1973 14.5461 10.1973 13.6461C10.1973 12.8461 10.3973 12.4461 10.4973 12.1461C10.6973 11.7461 10.7973 11.4461 11.0973 11.1461C11.3973 10.8461 11.6973 10.6461 12.0973 10.5461C12.3973 10.4461 12.7973 10.3461 13.5973 10.2461C14.4973 10.2461 14.7973 10.2461 16.9973 10.2461ZM16.9973 8.74609C14.6973 8.74609 14.4973 8.74609 13.5973 8.74609C12.6973 8.74609 12.0973 8.94609 11.5973 9.14609C11.0973 9.34609 10.5973 9.64609 10.0973 10.1461C9.59727 10.6461 9.39727 11.0461 9.09727 11.6461C8.89727 12.1461 8.79727 12.7461 8.69727 13.6461C8.69727 14.5461 8.69727 14.8461 8.69727 17.0461C8.69727 19.3461 8.69727 19.5461 8.69727 20.4461C8.69727 21.3461 8.89727 21.9461 9.09727 22.4461C9.29727 22.9461 9.59727 23.4461 10.0973 23.9461C10.5973 24.4461 10.9973 24.6461 11.5973 24.9461C12.0973 25.1461 12.6973 25.2461 13.5973 25.3461C14.4973 25.3461 14.7973 25.3461 16.9973 25.3461C19.1973 25.3461 19.4973 25.3461 20.3973 25.3461C21.2973 25.3461 21.8973 25.1461 22.3973 24.9461C22.8973 24.7461 23.3973 24.4461 23.8973 23.9461C24.3973 23.4461 24.5973 23.0461 24.8973 22.4461C25.0973 21.9461 25.1973 21.3461 25.2973 20.4461C25.2973 19.5461 25.2973 19.2461 25.2973 17.0461C25.2973 14.8461 25.2973 14.5461 25.2973 13.6461C25.2973 12.7461 25.0973 12.1461 24.8973 11.6461C24.6973 11.1461 24.3973 10.6461 23.8973 10.1461C23.3973 9.64609 22.9973 9.44609 22.3973 9.14609C21.8973 8.94609 21.2973 8.84609 20.3973 8.74609C19.4973 8.74609 19.2973 8.74609 16.9973 8.74609Z" fill="white"/>
<path d="M16.9973 12.7461C14.5973 12.7461 12.6973 14.6461 12.6973 17.0461C12.6973 19.4461 14.5973 21.3461 16.9973 21.3461C19.3973 21.3461 21.2973 19.4461 21.2973 17.0461C21.2973 14.6461 19.3973 12.7461 16.9973 12.7461ZM16.9973 19.8461C15.4973 19.8461 14.1973 18.6461 14.1973 17.0461C14.1973 15.5461 15.3973 14.2461 16.9973 14.2461C18.4973 14.2461 19.7973 15.4461 19.7973 17.0461C19.7973 18.5461 18.4973 19.8461 16.9973 19.8461Z" fill="white"/>
<path d="M21.3973 13.6461C21.9496 13.6461 22.3973 13.1984 22.3973 12.6461C22.3973 12.0938 21.9496 11.6461 21.3973 11.6461C20.845 11.6461 20.3973 12.0938 20.3973 12.6461C20.3973 13.1984 20.845 13.6461 21.3973 13.6461Z" fill="white"/>
</svg>
