<svg width="33" height="33" viewBox="0 0 33 33" fill="none" xmlns="http://www.w3.org/2000/svg">
<path d="M2.80859 10.4082C2.80859 5.98992 6.39032 2.4082 10.8086 2.4082H22.7476C27.1659 2.4082 30.7476 5.98993 30.7476 10.4082V22.4082C30.7476 26.8265 27.1659 30.4082 22.7476 30.4082H10.8086C6.39032 30.4082 2.80859 26.8265 2.80859 22.4082V10.4082Z" fill="#1877F2"/>
<path d="M24.5293 16.7461C24.5293 12.3461 20.9293 8.74609 16.5293 8.74609C12.1293 8.74609 8.5293 12.3461 8.5293 16.7461C8.5293 20.7461 11.4293 24.0461 15.2293 24.6461V19.0461H13.2293V16.7461H15.2293V14.9461C15.2293 12.9461 16.4293 11.8461 18.2293 11.8461C19.1293 11.8461 20.0293 12.0461 20.0293 12.0461V14.0461H19.0293C18.0293 14.0461 17.7293 14.6461 17.7293 15.2461V16.7461H19.9293L19.5293 19.0461H17.6293V24.7461C21.6293 24.1461 24.5293 20.7461 24.5293 16.7461Z" fill="white"/>
</svg>
