<svg width="33" height="33" viewBox="0 0 33 33" fill="none" xmlns="http://www.w3.org/2000/svg">
<path d="M2.80859 10.4082C2.80859 5.98992 6.39032 2.4082 10.8086 2.4082H22.7476C27.1659 2.4082 30.7476 5.98993 30.7476 10.4082V22.4082C30.7476 26.8265 27.1659 30.4082 22.7476 30.4082H10.8086C6.39032 30.4082 2.80859 26.8265 2.80859 22.4082V10.4082Z" fill="#0088CC"/>
<path d="M8.62921 16.4544C12.9242 14.5831 15.7881 13.3495 17.2211 12.7535C21.3126 11.0517 22.1628 10.7561 22.717 10.7462C22.8388 10.7441 23.1113 10.7743 23.2879 10.9176C23.4369 11.0385 23.4779 11.2019 23.4975 11.3166C23.5172 11.4312 23.5416 11.6925 23.5222 11.8966C23.3005 14.2262 22.3411 19.8796 21.853 22.4888C21.6465 23.5929 21.2398 23.9631 20.8461 23.9993C19.9906 24.078 19.3409 23.4339 18.5122 22.8907C17.2155 22.0407 16.483 21.5115 15.2243 20.6821C13.7697 19.7235 14.7127 19.1967 15.5417 18.3357C15.7586 18.1104 19.5283 14.6816 19.6012 14.3705C19.6104 14.3316 19.6188 14.1866 19.5327 14.11C19.4465 14.0335 19.3194 14.0596 19.2276 14.0805C19.0976 14.11 17.0261 15.4792 13.0132 18.188C12.4252 18.5917 11.8926 18.7885 11.4155 18.7782C10.8894 18.7668 9.87752 18.4807 9.12528 18.2362C8.20262 17.9363 7.46932 17.7777 7.53317 17.2684C7.56643 17.0031 7.93178 16.7317 8.62921 16.4544Z" fill="white"/>
</svg>
