<svg width="33" height="33" viewBox="0 0 33 33" fill="none" xmlns="http://www.w3.org/2000/svg">
<path d="M2.80859 11.4082C2.80859 6.98992 6.39032 3.4082 10.8086 3.4082H22.7476C27.1659 3.4082 30.7476 6.98993 30.7476 11.4082V23.4082C30.7476 27.8265 27.1659 31.4082 22.7476 31.4082H10.8086C6.39032 31.4082 2.80859 27.8265 2.80859 23.4082V11.4082Z" fill="#25D366"/>
<path fill-rule="evenodd" clip-rule="evenodd" d="M22.1293 11.4133C20.6293 9.91328 18.6293 9.11328 16.5293 9.11328C12.1293 9.11328 8.5293 12.7133 8.5293 17.1133C8.5293 18.5133 8.9293 19.9133 9.6293 21.1133L8.5293 25.1133L12.7293 24.0133C13.9293 24.6133 15.2293 25.0133 16.5293 25.0133C20.9293 25.0133 24.5293 21.4133 24.5293 17.0133C24.5293 14.9133 23.6293 12.9133 22.1293 11.4133ZM16.5293 23.7133C15.3293 23.7133 14.1293 23.4133 13.1293 22.8133L12.9293 22.7133L10.4293 23.4133L11.1293 21.0133L10.9293 20.7133C10.2293 19.6133 9.92929 18.4133 9.92929 17.2133C9.92929 13.6133 12.9293 10.6133 16.5293 10.6133C18.3293 10.6133 19.9293 11.3133 21.2293 12.5133C22.5293 13.8133 23.1293 15.4133 23.1293 17.2133C23.1293 20.7133 20.2293 23.7133 16.5293 23.7133ZM20.1293 18.7133C19.9293 18.6133 18.9293 18.1133 18.7293 18.1133C18.5293 18.0133 18.4293 18.0133 18.3293 18.2133C18.2293 18.4133 17.8293 18.8133 17.7293 19.0133C17.6293 19.1133 17.5293 19.1133 17.3293 19.1133C17.1293 19.0133 16.5293 18.8133 15.7293 18.1133C15.1293 17.6133 14.7293 16.9133 14.6293 16.7133C14.5293 16.5133 14.6293 16.4133 14.7293 16.3133C14.8293 16.2133 14.9293 16.1133 15.0293 16.0133C15.1293 15.9133 15.1293 15.8133 15.2293 15.7133C15.3293 15.6133 15.2293 15.5133 15.2293 15.4133C15.2293 15.3133 14.8293 14.3133 14.6293 13.9133C14.5293 13.6133 14.3293 13.6133 14.2293 13.6133C14.1293 13.6133 14.0293 13.6133 13.8293 13.6133C13.7293 13.6133 13.5293 13.6133 13.3293 13.8133C13.1293 14.0133 12.6293 14.5133 12.6293 15.5133C12.6293 16.5133 13.3293 17.4133 13.4293 17.6133C13.5293 17.7133 14.8293 19.8133 16.8293 20.6133C18.5293 21.3133 18.8293 21.1133 19.2293 21.1133C19.6293 21.1133 20.4293 20.6133 20.5293 20.2133C20.7293 19.7133 20.7293 19.3133 20.6293 19.3133C20.5293 18.8133 20.3293 18.8133 20.1293 18.7133Z" fill="white"/>
</svg>
