<svg width="33" height="33" viewBox="0 0 33 33" fill="none" xmlns="http://www.w3.org/2000/svg">
<path d="M2.80859 10.4082C2.80859 5.98992 6.39032 2.4082 10.8086 2.4082H22.7476C27.1659 2.4082 30.7476 5.98993 30.7476 10.4082V22.4082C30.7476 26.8265 27.1659 30.4082 22.7476 30.4082H10.8086C6.39032 30.4082 2.80859 26.8265 2.80859 22.4082V10.4082Z" fill="black"/>
<path d="M18.0515 15.521L24.0078 8.74609H22.5964L17.4245 14.6287L13.2937 8.74609H8.5293L14.7759 17.6416L8.5293 24.7461H9.94084L15.4025 18.5339L19.7649 24.7461H24.5293L18.0511 15.521H18.0515ZM16.1182 17.7199L15.4853 16.8341L10.4494 9.78584H12.6175L16.6815 15.474L17.3144 16.3598L22.597 23.7536H20.429L16.1182 17.7203V17.7199Z" fill="white"/>
</svg>
