<svg width="33" height="33" viewBox="0 0 33 33" fill="none" xmlns="http://www.w3.org/2000/svg">
<path d="M2.80859 10.4082C2.80859 5.98992 6.39032 2.4082 10.8086 2.4082H22.7476C27.1659 2.4082 30.7476 5.98993 30.7476 10.4082V22.4082C30.7476 26.8265 27.1659 30.4082 22.7476 30.4082H10.8086C6.39032 30.4082 2.80859 26.8265 2.80859 22.4082V10.4082Z" fill="#FF0000"/>
<path d="M24.1293 12.8465C23.9293 12.1465 23.4293 11.6465 22.7293 11.4465C21.5293 11.1465 16.4293 11.1465 16.4293 11.1465C16.4293 11.1465 11.4293 11.1465 10.1293 11.4465C9.4293 11.6465 8.92929 12.1465 8.72929 12.8465C8.52929 14.1465 8.5293 16.7465 8.5293 16.7465C8.5293 16.7465 8.5293 19.3465 8.8293 20.6465C9.0293 21.3465 9.52929 21.8465 10.2293 22.0465C11.4293 22.3465 16.5293 22.3465 16.5293 22.3465C16.5293 22.3465 21.5293 22.3465 22.8293 22.0465C23.5293 21.8465 24.0293 21.3465 24.2293 20.6465C24.5293 19.3465 24.5293 16.7465 24.5293 16.7465C24.5293 16.7465 24.5293 14.1465 24.1293 12.8465ZM14.9293 19.1465V14.3465L19.1293 16.7465L14.9293 19.1465Z" fill="white"/>
</svg>
